<svg width="985" height="909" viewBox="0 0 985 909" fill="none" xmlns="http://www.w3.org/2000/svg">
<path d="M545.125 597.404C270.472 746.97 284.777 867.454 326.261 909C303.945 781.783 532.966 659.723 650.266 614.596C917.289 470.187 907.435 144.695 869.131 0C812.483 116.902 699.618 186.241 650.266 206.298C561.003 238.962 508.648 310.163 493.628 341.681C452.43 462.021 465.018 550.844 476.462 580.213C466.162 380.792 652.412 247.844 746.824 206.298C794.888 194.264 828.362 155.44 839.09 137.532C849.39 149.566 850.534 198.418 849.819 221.34C837.803 405.289 641.683 548.695 545.125 597.404Z" fill="#61E95E"/>
<path d="M367.03 861.723C433.547 689.809 952.814 474.915 985 801.553C796.176 559.153 494.343 740.667 367.03 861.723Z" fill="#61E95E"/>
<path d="M270.472 292.255C394.066 391.966 372.036 575.915 345.572 655.426C481.182 351.136 289.068 197.702 176.06 159.021C215.541 176.213 229.703 230.652 231.848 255.723C212.537 464.17 270.472 580.213 326.261 633.936C270.472 544.393 256.882 370.405 270.472 292.255Z" fill="#61E95E"/>
<path d="M284.485 701.385C284.407 704.332 284.019 706.936 283.346 709.149C283.791 706.548 284.17 703.96 284.485 701.385C285.56 660.448 226.597 553.255 34.4413 507.149C19.4212 499.27 -8.04415 470.187 2.25536 416.894C111.201 452.09 302.343 555.078 284.485 701.385Z" fill="#61E95E"/>
</svg>
