<svg width="31" height="28" viewBox="0 0 31 28" fill="none" xmlns="http://www.w3.org/2000/svg">
<path d="M0 1.3125C0 0.585156 0.563484 0 1.26389 0H3.66001C4.81858 0 5.84549 0.7 6.32471 1.75H27.9688C29.3538 1.75 30.3649 3.11719 30.0016 4.50625L27.8424 12.8352C27.3948 14.5523 25.8939 15.75 24.1824 15.75H8.98941L9.27378 17.3086C9.38964 17.9266 9.91099 18.375 10.5166 18.375H25.6991C26.3995 18.375 26.963 18.9602 26.963 19.6875C26.963 20.4148 26.3995 21 25.6991 21H10.5166C8.6945 21 7.13044 19.6547 6.7934 17.8008L4.07604 2.98047C4.03918 2.77266 3.86539 2.625 3.66001 2.625H1.26389C0.563484 2.625 0 2.03984 0 1.3125ZM6.74074 25.375C6.74074 25.0303 6.80612 24.6889 6.93316 24.3705C7.06019 24.052 7.24638 23.7626 7.48111 23.5188C7.71583 23.2751 7.9945 23.0817 8.30118 22.9498C8.60786 22.8179 8.93657 22.75 9.26852 22.75C9.60047 22.75 9.92917 22.8179 10.2359 22.9498C10.5425 23.0817 10.8212 23.2751 11.0559 23.5188C11.2907 23.7626 11.4768 24.052 11.6039 24.3705C11.7309 24.6889 11.7963 25.0303 11.7963 25.375C11.7963 25.7197 11.7309 26.0611 11.6039 26.3795C11.4768 26.698 11.2907 26.9874 11.0559 27.2312C10.8212 27.4749 10.5425 27.6683 10.2359 27.8002C9.92917 27.9321 9.60047 28 9.26852 28C8.93657 28 8.60786 27.9321 8.30118 27.8002C7.9945 27.6683 7.71583 27.4749 7.48111 27.2312C7.24638 26.9874 7.06019 26.698 6.93316 26.3795C6.80612 26.0611 6.74074 25.7197 6.74074 25.375ZM24.4352 22.75C25.1056 22.75 25.7485 23.0266 26.2226 23.5188C26.6966 24.0111 26.963 24.6788 26.963 25.375C26.963 26.0712 26.6966 26.7389 26.2226 27.2312C25.7485 27.7234 25.1056 28 24.4352 28C23.7648 28 23.1218 27.7234 22.6478 27.2312C22.1737 26.7389 21.9074 26.0712 21.9074 25.375C21.9074 24.6788 22.1737 24.0111 22.6478 23.5188C23.1218 23.0266 23.7648 22.75 24.4352 22.75Z" fill="#434343"/>
</svg>
