<svg width="18" height="18" viewBox="0 0 18 18" fill="none" xmlns="http://www.w3.org/2000/svg">
<path d="M14.1424 7.06983C14.1424 8.62995 13.6359 10.0711 12.7826 11.2404L17.0865 15.5468C17.5114 15.9717 17.5114 16.6617 17.0865 17.0866C16.6615 17.5114 15.9714 17.5114 15.5465 17.0866L11.2425 12.7801C10.0731 13.6366 8.63164 14.1397 7.07121 14.1397C3.16505 14.1397 0 10.9752 0 7.06983C0 3.16443 3.16505 0 7.07121 0C10.9774 0 14.1424 3.16443 14.1424 7.06983ZM7.07121 11.9643C7.71409 11.9643 8.35068 11.8377 8.94462 11.5918C9.53856 11.3458 10.0782 10.9853 10.5328 10.5308C10.9874 10.0763 11.348 9.5367 11.594 8.94287C11.84 8.34905 11.9667 7.71258 11.9667 7.06983C11.9667 6.42708 11.84 5.79061 11.594 5.19679C11.348 4.60296 10.9874 4.06339 10.5328 3.6089C10.0782 3.1544 9.53856 2.79388 8.94462 2.5479C8.35068 2.30193 7.71409 2.17533 7.07121 2.17533C6.42833 2.17533 5.79175 2.30193 5.1978 2.5479C4.60386 2.79388 4.06419 3.1544 3.6096 3.6089C3.15502 4.06339 2.79442 4.60296 2.5484 5.19679C2.30238 5.79061 2.17576 6.42708 2.17576 7.06983C2.17576 7.71258 2.30238 8.34905 2.5484 8.94287C2.79442 9.5367 3.15502 10.0763 3.6096 10.5308C4.06419 10.9853 4.60386 11.3458 5.1978 11.5918C5.79175 11.8377 6.42833 11.9643 7.07121 11.9643Z" fill="#434343" fill-opacity="1"/>
</svg>
