<svg width="13" height="13" viewBox="0 0 13 13" fill="none" xmlns="http://www.w3.org/2000/svg">
<path d="M7.44099 3.85894H8.75957V5.17752C8.75957 5.54013 9.05625 5.83681 9.41886 5.83681C9.78146 5.83681 10.0781 5.54013 10.0781 5.17752V3.85894H11.3967C11.7593 3.85894 12.056 3.56226 12.056 3.19965C12.056 2.83704 11.7593 2.54036 11.3967 2.54036H10.0781V1.22179C10.0781 0.85918 9.78146 0.5625 9.41886 0.5625C9.05625 0.5625 8.75957 0.85918 8.75957 1.22179V2.54036H7.44099C7.07838 2.54036 6.7817 2.83704 6.7817 3.19965C6.7817 3.56226 7.07838 3.85894 7.44099 3.85894ZM10.8759 8.65197L9.20129 8.46077C8.79912 8.41462 8.40355 8.55307 8.12006 8.83657L6.90697 10.0497C5.04118 9.10028 3.51163 7.57733 2.56226 5.70495L3.78194 4.48526C4.06544 4.20177 4.20389 3.79961 4.15774 3.40403L3.96654 1.74263C3.89402 1.07674 3.32703 0.569093 2.66115 0.569093H1.52058C0.775588 0.569093 0.155857 1.18882 0.202007 1.93382C0.55143 7.56414 5.05437 12.0605 10.6781 12.4099C11.4231 12.4561 12.0428 11.8363 12.0428 11.0913V9.95076C12.0494 9.29148 11.5418 8.72449 10.8759 8.65197Z" fill="black"/>
</svg>
